<?xml version="1.0" encoding="UTF-8"?>
<svg width="484px" height="198px" viewBox="0 0 484 198" version="1.1" xmlns="http://www.w3.org/2000/svg" xmlns:xlink="http://www.w3.org/1999/xlink">
    <!-- Generator: Sketch 63 (92445) - https://sketch.com -->
    <title>atom/brand/logo</title>
    <desc>Created with Sketch.</desc>
    <g id="atom/brand/logo" stroke="none" stroke-width="1" fill="none" fill-rule="evenodd">
        <path d="M105.6304,1 L192.9214,115.704 L192.9214,35.655 L221.1534,35.655 L221.1534,197.604 L133.8604,83.015 L133.8604,165.664 L105.6304,165.664 L105.6304,1 Z M14.672,35.6553 L14.672,152.1073 L87.849,152.1073 L87.849,165.6653 L0,165.6653 L0,35.6553 L14.672,35.6553 Z M350.4116,35.655 L350.4116,61.1 L280.7656,61.1 L280.7656,87.474 L342.0556,87.474 L342.0556,112.919 L280.7656,112.919 L280.7656,140.22 L351.3416,140.22 L351.3416,165.665 L252.3486,165.665 L252.3486,35.655 L350.4116,35.655 Z M432.3522,35.655 C448.3242,35.655 461.1392,40.484 469.3122,48.656 C475.6272,54.971 479.3422,64.072 479.3422,74.286 L479.3422,74.659 C479.3422,96.202 464.4842,108.832 444.0532,112.546 L483.9842,165.665 L465.9702,165.665 L428.2662,115.146 L391.1222,115.146 L391.1222,165.665 L376.4492,165.665 L376.4492,35.655 L432.3522,35.655 Z M431.2382,49.213 L391.1222,49.213 L391.1222,101.961 L431.0532,101.961 C450.5542,101.961 464.4842,91.931 464.4842,75.216 L464.4842,74.843 C464.4842,58.871 452.2252,49.213 431.2382,49.213 Z" id="Combined-Shape" fill="#D01936"></path>
    </g>
</svg>